<svg xmlns="http://www.w3.org/2000/svg" width="198" height="58" viewBox="0 0 198 58" role="img" aria-label="Донат · TRC20"><title>Донат · TRC20</title><defs><linearGradient id="body" x2="1" y2="1"><stop stop-color="#1d2b43"/><stop offset="1" stop-color="#111827"/></linearGradient><linearGradient id="accent"><stop stop-color="#a63d79"/><stop offset="1" stop-color="#ff9ed5"/></linearGradient></defs><rect x="1" y="5" width="196" height="51" rx="13" fill="#080d18"/><rect x="1" y="1" width="196" height="50" rx="13" fill="url(#body)" stroke="#ff9ed5" stroke-opacity=".5"/><path d="M15 2h168" stroke="#ff9ed5" stroke-opacity=".55"/><rect x="10" y="10" width="32" height="32" rx="9" fill="#a63d79"/><g transform="translate(16 16) scale(.83)" fill="none" stroke="#fff" stroke-width="1.8" stroke-linecap="round" stroke-linejoin="round"><path d="M20 5a5 5 0 0 0-8 1 5 5 0 0 0-8-1c-4 5 3 11 8 15 5-4 12-10 8-15Z"/></g><text x="53" y="32" fill="#f5f8ff" font-family="Arial,Helvetica,sans-serif" font-size="14" font-weight="700">Донат · TRC20</text><path d="m174 21 5 5-5 5" fill="none" stroke="#ff9ed5" stroke-width="2" stroke-linecap="round" stroke-linejoin="round"/></svg>
